<mxfile host="app.diagrams.net" modified="2020-04-25T11:39:55.873Z" agent="5.0 (Windows NT 10.0; Win64; x64) AppleWebKit/537.36 (KHTML, like Gecko) Chrome/81.0.4044.122 Safari/537.36" etag="1Z1lyFaQLI4LYIuCz8IW" version="13.0.1" type="github">
  <diagram id="WXekA-x_xKKdpQk5buRY" name="Page-1">
    <mxGraphModel dx="2858" dy="2258" grid="1" gridSize="10" guides="1" tooltips="1" connect="1" arrows="1" fold="1" page="1" pageScale="1" pageWidth="827" pageHeight="1169" math="0" shadow="0">
      <root>
        <mxCell id="0" />
        <mxCell id="1" parent="0" />
        <mxCell id="t_3xAI16Gsf8tu39YJwn-109" value="&lt;b&gt;&lt;font color=&quot;#ff0000&quot; style=&quot;font-size: 14px&quot;&gt;Boundary Blockchain&lt;/font&gt;&lt;/b&gt;" style="ellipse;whiteSpace=wrap;html=1;aspect=fixed;dashed=1;fillColor=none;align=center;verticalAlign=top;" parent="1" vertex="1">
          <mxGeometry x="-10" y="-10" width="1260" height="1260" as="geometry" />
        </mxCell>
        <mxCell id="t_3xAI16Gsf8tu39YJwn-1" value="" style="endArrow=none;html=1;entryX=0.5;entryY=1;entryDx=0;entryDy=0;exitX=0.5;exitY=0;exitDx=0;exitDy=0;horizontal=1;fontStyle=1;labelPosition=center;verticalLabelPosition=middle;align=center;verticalAlign=middle;anchorPointDirection=1;" parent="1" source="t_3xAI16Gsf8tu39YJwn-67" target="t_3xAI16Gsf8tu39YJwn-53" edge="1">
          <mxGeometry x="-0.6182" y="12" width="50" height="50" relative="1" as="geometry">
            <mxPoint x="695" y="760" as="sourcePoint" />
            <mxPoint x="745" y="710" as="targetPoint" />
            <mxPoint as="offset" />
          </mxGeometry>
        </mxCell>
        <mxCell id="t_3xAI16Gsf8tu39YJwn-4" value="&lt;b style=&quot;font-size: 14px;&quot;&gt;Servizio di fotogrammetria&lt;/b&gt;" style="ellipse;whiteSpace=wrap;html=1;aspect=fixed;fontSize=14;" parent="1" vertex="1">
          <mxGeometry x="444" y="1431" width="114" height="114" as="geometry" />
        </mxCell>
        <mxCell id="t_3xAI16Gsf8tu39YJwn-5" value="Invio fotografia" style="shape=hexagon;perimeter=hexagonPerimeter2;whiteSpace=wrap;html=1;" parent="1" vertex="1">
          <mxGeometry x="1655" y="422.5" width="120" height="55" as="geometry" />
        </mxCell>
        <mxCell id="t_3xAI16Gsf8tu39YJwn-6" value="Scattare fotografie" style="shape=hexagon;perimeter=hexagonPerimeter2;whiteSpace=wrap;html=1;" parent="1" vertex="1">
          <mxGeometry x="1485" y="422.5" width="120" height="55" as="geometry" />
        </mxCell>
        <mxCell id="t_3xAI16Gsf8tu39YJwn-7" value="Invio delle foto al direttore dei lavori" style="ellipse;whiteSpace=wrap;html=1;" parent="1" vertex="1">
          <mxGeometry x="1555" y="300" width="140" height="80" as="geometry" />
        </mxCell>
        <mxCell id="t_3xAI16Gsf8tu39YJwn-8" value="Immagine" style="rounded=0;whiteSpace=wrap;html=1;" parent="1" vertex="1">
          <mxGeometry x="855" y="732.5" width="120" height="60" as="geometry" />
        </mxCell>
        <mxCell id="t_3xAI16Gsf8tu39YJwn-9" value="D" style="endArrow=none;html=1;entryX=0;entryY=0.5;entryDx=0;entryDy=0;exitX=1;exitY=0.5;exitDx=0;exitDy=0;horizontal=1;verticalAlign=middle;comic=0;fontStyle=1" parent="1" source="t_3xAI16Gsf8tu39YJwn-47" target="t_3xAI16Gsf8tu39YJwn-7" edge="1">
          <mxGeometry x="-0.3864" width="50" height="50" relative="1" as="geometry">
            <mxPoint x="905" y="515" as="sourcePoint" />
            <mxPoint x="955" y="465" as="targetPoint" />
            <mxPoint as="offset" />
          </mxGeometry>
        </mxCell>
        <mxCell id="t_3xAI16Gsf8tu39YJwn-10" value="Calcolo Hash della foto" style="shape=hexagon;perimeter=hexagonPerimeter2;whiteSpace=wrap;html=1;" parent="1" vertex="1">
          <mxGeometry x="855" y="610" width="120" height="80" as="geometry" />
        </mxCell>
        <mxCell id="t_3xAI16Gsf8tu39YJwn-11" value="Aggiunta immagine nel giornale" style="ellipse;whiteSpace=wrap;html=1;" parent="1" vertex="1">
          <mxGeometry x="855" y="367.5" width="120" height="80" as="geometry" />
        </mxCell>
        <mxCell id="t_3xAI16Gsf8tu39YJwn-12" value="Lettura giornale" style="ellipse;whiteSpace=wrap;html=1;" parent="1" vertex="1">
          <mxGeometry x="232" y="245" width="120" height="80" as="geometry" />
        </mxCell>
        <mxCell id="t_3xAI16Gsf8tu39YJwn-13" value="Scrivere nel giornale" style="ellipse;whiteSpace=wrap;html=1;" parent="1" vertex="1">
          <mxGeometry x="742" y="205" width="120" height="80" as="geometry" />
        </mxCell>
        <mxCell id="t_3xAI16Gsf8tu39YJwn-14" value="Lettura misure nel giornale dei lavori" style="ellipse;whiteSpace=wrap;html=1;" parent="1" vertex="1">
          <mxGeometry x="112" y="365" width="120" height="80" as="geometry" />
        </mxCell>
        <mxCell id="t_3xAI16Gsf8tu39YJwn-15" value="Leggere immagini nel giornale dei lavori" style="ellipse;whiteSpace=wrap;html=1;" parent="1" vertex="1">
          <mxGeometry x="342" y="355" width="120" height="80" as="geometry" />
        </mxCell>
        <mxCell id="t_3xAI16Gsf8tu39YJwn-16" value="Lettura misure" style="shape=hexagon;perimeter=hexagonPerimeter2;whiteSpace=wrap;html=1;" parent="1" vertex="1">
          <mxGeometry x="113" y="505" width="120" height="80" as="geometry" />
        </mxCell>
        <mxCell id="t_3xAI16Gsf8tu39YJwn-17" value="Visualizzazione foto" style="shape=hexagon;perimeter=hexagonPerimeter2;whiteSpace=wrap;html=1;" parent="1" vertex="1">
          <mxGeometry x="342" y="505" width="120" height="80" as="geometry" />
        </mxCell>
        <mxCell id="t_3xAI16Gsf8tu39YJwn-18" value="giornale" style="rounded=0;whiteSpace=wrap;html=1;" parent="1" vertex="1">
          <mxGeometry x="289" y="720" width="120" height="60" as="geometry" />
        </mxCell>
        <mxCell id="t_3xAI16Gsf8tu39YJwn-19" value="" style="endArrow=none;html=1;exitX=1;exitY=0.5;exitDx=0;exitDy=0;horizontal=0;entryX=0;entryY=0.5;entryDx=0;entryDy=0;fontStyle=1" parent="1" source="t_3xAI16Gsf8tu39YJwn-18" target="t_3xAI16Gsf8tu39YJwn-10" edge="1">
          <mxGeometry x="0.4629" y="88" width="50" height="50" relative="1" as="geometry">
            <mxPoint x="192" y="815" as="sourcePoint" />
            <mxPoint x="572" y="485" as="targetPoint" />
            <mxPoint as="offset" />
          </mxGeometry>
        </mxCell>
        <mxCell id="t_3xAI16Gsf8tu39YJwn-20" value="Aggiunta misura nel giornale" style="ellipse;whiteSpace=wrap;html=1;" parent="1" vertex="1">
          <mxGeometry x="622" y="367.5" width="120" height="80" as="geometry" />
        </mxCell>
        <mxCell id="t_3xAI16Gsf8tu39YJwn-21" value="Conversione immagine in misura" style="shape=hexagon;perimeter=hexagonPerimeter2;whiteSpace=wrap;html=1;" parent="1" vertex="1">
          <mxGeometry x="785" y="1608" width="120" height="80" as="geometry" />
        </mxCell>
        <mxCell id="t_3xAI16Gsf8tu39YJwn-22" value="Immagine" style="rounded=0;whiteSpace=wrap;html=1;" parent="1" vertex="1">
          <mxGeometry x="785" y="1758" width="120" height="60" as="geometry" />
        </mxCell>
        <mxCell id="t_3xAI16Gsf8tu39YJwn-23" value="Misura" style="rounded=0;whiteSpace=wrap;html=1;" parent="1" vertex="1">
          <mxGeometry x="535" y="1010" width="120" height="60" as="geometry" />
        </mxCell>
        <mxCell id="t_3xAI16Gsf8tu39YJwn-24" value="" style="endArrow=none;html=1;entryX=0.5;entryY=1;entryDx=0;entryDy=0;horizontal=1;exitX=0;exitY=0.5;exitDx=0;exitDy=0;fontStyle=1" parent="1" source="t_3xAI16Gsf8tu39YJwn-68" target="t_3xAI16Gsf8tu39YJwn-23" edge="1">
          <mxGeometry x="0.5813" width="50" height="50" relative="1" as="geometry">
            <mxPoint x="905" y="1475" as="sourcePoint" />
            <mxPoint x="975" y="705" as="targetPoint" />
            <mxPoint as="offset" />
          </mxGeometry>
        </mxCell>
        <mxCell id="t_3xAI16Gsf8tu39YJwn-25" value="or" style="endArrow=classic;html=1;entryX=0;entryY=1;entryDx=0;entryDy=0;exitX=0.5;exitY=0;exitDx=0;exitDy=0;" parent="1" source="t_3xAI16Gsf8tu39YJwn-14" target="t_3xAI16Gsf8tu39YJwn-12" edge="1">
          <mxGeometry width="50" height="50" relative="1" as="geometry">
            <mxPoint x="722" y="605" as="sourcePoint" />
            <mxPoint x="772" y="555" as="targetPoint" />
          </mxGeometry>
        </mxCell>
        <mxCell id="t_3xAI16Gsf8tu39YJwn-26" value="or" style="endArrow=classic;html=1;entryX=1;entryY=1;entryDx=0;entryDy=0;exitX=0.5;exitY=0;exitDx=0;exitDy=0;" parent="1" source="t_3xAI16Gsf8tu39YJwn-15" target="t_3xAI16Gsf8tu39YJwn-12" edge="1">
          <mxGeometry width="50" height="50" relative="1" as="geometry">
            <mxPoint x="262" y="365" as="sourcePoint" />
            <mxPoint x="299.57359312880726" y="333.2842712474619" as="targetPoint" />
          </mxGeometry>
        </mxCell>
        <mxCell id="t_3xAI16Gsf8tu39YJwn-27" value="" style="endArrow=classic;html=1;entryX=0.5;entryY=1;entryDx=0;entryDy=0;exitX=0.5;exitY=0;exitDx=0;exitDy=0;" parent="1" source="t_3xAI16Gsf8tu39YJwn-17" target="t_3xAI16Gsf8tu39YJwn-15" edge="1">
          <mxGeometry width="50" height="50" relative="1" as="geometry">
            <mxPoint x="502" y="495" as="sourcePoint" />
            <mxPoint x="552" y="445" as="targetPoint" />
          </mxGeometry>
        </mxCell>
        <mxCell id="t_3xAI16Gsf8tu39YJwn-28" value="" style="endArrow=classic;html=1;entryX=0.5;entryY=1;entryDx=0;entryDy=0;exitX=0.5;exitY=0;exitDx=0;exitDy=0;" parent="1" source="t_3xAI16Gsf8tu39YJwn-16" target="t_3xAI16Gsf8tu39YJwn-14" edge="1">
          <mxGeometry width="50" height="50" relative="1" as="geometry">
            <mxPoint x="332" y="495" as="sourcePoint" />
            <mxPoint x="332" y="455" as="targetPoint" />
          </mxGeometry>
        </mxCell>
        <mxCell id="t_3xAI16Gsf8tu39YJwn-29" value="/" style="endArrow=none;html=1;exitX=0;exitY=0.5;exitDx=0;exitDy=0;horizontal=0;entryX=0.5;entryY=1;entryDx=0;entryDy=0;" parent="1" source="t_3xAI16Gsf8tu39YJwn-23" target="t_3xAI16Gsf8tu39YJwn-16" edge="1">
          <mxGeometry width="50" height="50" relative="1" as="geometry">
            <mxPoint x="173" y="690" as="sourcePoint" />
            <mxPoint x="472" y="455" as="targetPoint" />
            <Array as="points">
              <mxPoint x="173" y="1040" />
            </Array>
          </mxGeometry>
        </mxCell>
        <mxCell id="t_3xAI16Gsf8tu39YJwn-30" value="/" style="endArrow=none;html=1;horizontal=0;exitX=0.5;exitY=0;exitDx=0;exitDy=0;entryX=0.5;entryY=1;entryDx=0;entryDy=0;" parent="1" source="t_3xAI16Gsf8tu39YJwn-18" target="t_3xAI16Gsf8tu39YJwn-17" edge="1">
          <mxGeometry x="0.0769" width="50" height="50" relative="1" as="geometry">
            <mxPoint x="402" y="620" as="sourcePoint" />
            <mxPoint x="402" y="580" as="targetPoint" />
            <mxPoint as="offset" />
          </mxGeometry>
        </mxCell>
        <mxCell id="t_3xAI16Gsf8tu39YJwn-31" value="and" style="endArrow=classic;html=1;entryX=1;entryY=1;entryDx=0;entryDy=0;exitX=0.5;exitY=0;exitDx=0;exitDy=0;" parent="1" source="t_3xAI16Gsf8tu39YJwn-11" target="t_3xAI16Gsf8tu39YJwn-13" edge="1">
          <mxGeometry width="50" height="50" relative="1" as="geometry">
            <mxPoint x="672" y="330" as="sourcePoint" />
            <mxPoint x="699.573593128807" y="278.2842712474619" as="targetPoint" />
          </mxGeometry>
        </mxCell>
        <mxCell id="t_3xAI16Gsf8tu39YJwn-32" value="and" style="endArrow=classic;html=1;exitX=0.5;exitY=0;exitDx=0;exitDy=0;entryX=0;entryY=1;entryDx=0;entryDy=0;" parent="1" source="t_3xAI16Gsf8tu39YJwn-20" target="t_3xAI16Gsf8tu39YJwn-13" edge="1">
          <mxGeometry width="50" height="50" relative="1" as="geometry">
            <mxPoint x="822" y="330" as="sourcePoint" />
            <mxPoint x="784.426406871193" y="278.284271247462" as="targetPoint" />
          </mxGeometry>
        </mxCell>
        <mxCell id="t_3xAI16Gsf8tu39YJwn-33" value="" style="endArrow=classic;html=1;entryX=0.5;entryY=1;entryDx=0;entryDy=0;exitX=0.5;exitY=0;exitDx=0;exitDy=0;" parent="1" source="t_3xAI16Gsf8tu39YJwn-10" target="t_3xAI16Gsf8tu39YJwn-48" edge="1">
          <mxGeometry width="50" height="50" relative="1" as="geometry">
            <mxPoint x="705" y="547.5" as="sourcePoint" />
            <mxPoint x="705" y="507.5" as="targetPoint" />
          </mxGeometry>
        </mxCell>
        <mxCell id="t_3xAI16Gsf8tu39YJwn-34" value="/" style="endArrow=none;html=1;exitX=0.5;exitY=0;exitDx=0;exitDy=0;horizontal=0;entryX=0.5;entryY=1;entryDx=0;entryDy=0;" parent="1" source="t_3xAI16Gsf8tu39YJwn-8" target="t_3xAI16Gsf8tu39YJwn-10" edge="1">
          <mxGeometry width="50" height="50" relative="1" as="geometry">
            <mxPoint x="545" y="787.5" as="sourcePoint" />
            <mxPoint x="914.9999999999995" y="777.5" as="targetPoint" />
          </mxGeometry>
        </mxCell>
        <mxCell id="t_3xAI16Gsf8tu39YJwn-35" value="/" style="endArrow=none;html=1;exitX=0.5;exitY=0;exitDx=0;exitDy=0;horizontal=0;entryX=0.5;entryY=1;entryDx=0;entryDy=0;" parent="1" source="t_3xAI16Gsf8tu39YJwn-23" target="t_3xAI16Gsf8tu39YJwn-57" edge="1">
          <mxGeometry width="50" height="50" relative="1" as="geometry">
            <mxPoint x="22" y="1022.5" as="sourcePoint" />
            <mxPoint x="682" y="897.5" as="targetPoint" />
          </mxGeometry>
        </mxCell>
        <mxCell id="t_3xAI16Gsf8tu39YJwn-36" value="" style="endArrow=classic;html=1;entryX=1;entryY=1;entryDx=0;entryDy=0;exitX=0.5;exitY=0;exitDx=0;exitDy=0;" parent="1" source="t_3xAI16Gsf8tu39YJwn-5" target="t_3xAI16Gsf8tu39YJwn-7" edge="1">
          <mxGeometry width="50" height="50" relative="1" as="geometry">
            <mxPoint x="845" y="510" as="sourcePoint" />
            <mxPoint x="845" y="465" as="targetPoint" />
          </mxGeometry>
        </mxCell>
        <mxCell id="t_3xAI16Gsf8tu39YJwn-37" value="/" style="endArrow=none;html=1;entryX=0.5;entryY=0;entryDx=0;entryDy=0;exitX=0.5;exitY=1;exitDx=0;exitDy=0;horizontal=0;" parent="1" source="t_3xAI16Gsf8tu39YJwn-21" target="t_3xAI16Gsf8tu39YJwn-22" edge="1">
          <mxGeometry width="50" height="50" relative="1" as="geometry">
            <mxPoint x="608" y="1797" as="sourcePoint" />
            <mxPoint x="658" y="1747" as="targetPoint" />
          </mxGeometry>
        </mxCell>
        <mxCell id="t_3xAI16Gsf8tu39YJwn-38" value="Immagine" style="rounded=0;whiteSpace=wrap;html=1;" parent="1" vertex="1">
          <mxGeometry x="1575" y="570" width="120" height="60" as="geometry" />
        </mxCell>
        <mxCell id="t_3xAI16Gsf8tu39YJwn-42" value="Calcolare misura" style="ellipse;whiteSpace=wrap;html=1;" parent="1" vertex="1">
          <mxGeometry x="692" y="1448" width="120" height="80" as="geometry" />
        </mxCell>
        <mxCell id="t_3xAI16Gsf8tu39YJwn-43" value="" style="endArrow=classic;html=1;exitX=0.625;exitY=0;exitDx=0;exitDy=0;entryX=1;entryY=1;entryDx=0;entryDy=0;" parent="1" source="t_3xAI16Gsf8tu39YJwn-21" target="t_3xAI16Gsf8tu39YJwn-42" edge="1">
          <mxGeometry width="50" height="50" relative="1" as="geometry">
            <mxPoint x="472" y="1727" as="sourcePoint" />
            <mxPoint x="522" y="1677" as="targetPoint" />
          </mxGeometry>
        </mxCell>
        <mxCell id="t_3xAI16Gsf8tu39YJwn-44" value="/" style="endArrow=none;html=1;entryX=0.5;entryY=1;entryDx=0;entryDy=0;horizontal=0;" parent="1" source="t_3xAI16Gsf8tu39YJwn-38" target="t_3xAI16Gsf8tu39YJwn-5" edge="1">
          <mxGeometry width="50" height="50" relative="1" as="geometry">
            <mxPoint x="1695" y="585" as="sourcePoint" />
            <mxPoint x="1745" y="535" as="targetPoint" />
          </mxGeometry>
        </mxCell>
        <mxCell id="t_3xAI16Gsf8tu39YJwn-45" value="/" style="endArrow=none;html=1;entryX=0.5;entryY=1;entryDx=0;entryDy=0;exitX=0.25;exitY=0;exitDx=0;exitDy=0;horizontal=0;" parent="1" source="t_3xAI16Gsf8tu39YJwn-38" target="t_3xAI16Gsf8tu39YJwn-6" edge="1">
          <mxGeometry width="50" height="50" relative="1" as="geometry">
            <mxPoint x="1695" y="585" as="sourcePoint" />
            <mxPoint x="1745" y="535" as="targetPoint" />
          </mxGeometry>
        </mxCell>
        <mxCell id="t_3xAI16Gsf8tu39YJwn-46" value="" style="endArrow=classic;html=1;entryX=0;entryY=1;entryDx=0;entryDy=0;exitX=0.5;exitY=0;exitDx=0;exitDy=0;" parent="1" source="t_3xAI16Gsf8tu39YJwn-6" target="t_3xAI16Gsf8tu39YJwn-7" edge="1">
          <mxGeometry width="50" height="50" relative="1" as="geometry">
            <mxPoint x="1695" y="585" as="sourcePoint" />
            <mxPoint x="1745" y="535" as="targetPoint" />
          </mxGeometry>
        </mxCell>
        <mxCell id="t_3xAI16Gsf8tu39YJwn-47" value="Acquisizione foto" style="ellipse;whiteSpace=wrap;html=1;" parent="1" vertex="1">
          <mxGeometry x="995" y="487.5" width="120" height="80" as="geometry" />
        </mxCell>
        <mxCell id="t_3xAI16Gsf8tu39YJwn-48" value="Scrivere foto" style="ellipse;whiteSpace=wrap;html=1;" parent="1" vertex="1">
          <mxGeometry x="855" y="487.5" width="120" height="80" as="geometry" />
        </mxCell>
        <mxCell id="t_3xAI16Gsf8tu39YJwn-49" value="and" style="endArrow=classic;html=1;entryX=0.5;entryY=1;entryDx=0;entryDy=0;exitX=0.5;exitY=0;exitDx=0;exitDy=0;" parent="1" source="t_3xAI16Gsf8tu39YJwn-48" target="t_3xAI16Gsf8tu39YJwn-11" edge="1">
          <mxGeometry width="50" height="50" relative="1" as="geometry">
            <mxPoint x="968" y="622.5" as="sourcePoint" />
            <mxPoint x="1018" y="572.5" as="targetPoint" />
          </mxGeometry>
        </mxCell>
        <mxCell id="t_3xAI16Gsf8tu39YJwn-50" value="and" style="endArrow=classic;html=1;entryX=1;entryY=1;entryDx=0;entryDy=0;exitX=0.308;exitY=0.038;exitDx=0;exitDy=0;exitPerimeter=0;" parent="1" source="t_3xAI16Gsf8tu39YJwn-47" target="t_3xAI16Gsf8tu39YJwn-11" edge="1">
          <mxGeometry width="50" height="50" relative="1" as="geometry">
            <mxPoint x="968" y="622.5" as="sourcePoint" />
            <mxPoint x="1018" y="572.5" as="targetPoint" />
          </mxGeometry>
        </mxCell>
        <mxCell id="t_3xAI16Gsf8tu39YJwn-51" value="D" style="endArrow=none;html=1;exitX=0.75;exitY=1;exitDx=0;exitDy=0;entryX=0.5;entryY=1;entryDx=0;entryDy=0;fontStyle=1" parent="1" source="t_3xAI16Gsf8tu39YJwn-8" target="t_3xAI16Gsf8tu39YJwn-38" edge="1">
          <mxGeometry width="50" height="50" relative="1" as="geometry">
            <mxPoint x="855" y="580" as="sourcePoint" />
            <mxPoint x="905" y="530" as="targetPoint" />
            <Array as="points">
              <mxPoint x="1070" y="880" />
              <mxPoint x="1635" y="880" />
            </Array>
          </mxGeometry>
        </mxCell>
        <mxCell id="t_3xAI16Gsf8tu39YJwn-52" value="/" style="endArrow=none;html=1;entryX=0.625;entryY=1;entryDx=0;entryDy=0;exitX=0;exitY=0.5;exitDx=0;exitDy=0;" parent="1" source="t_3xAI16Gsf8tu39YJwn-8" target="t_3xAI16Gsf8tu39YJwn-17" edge="1">
          <mxGeometry width="50" height="50" relative="1" as="geometry">
            <mxPoint x="485" y="600" as="sourcePoint" />
            <mxPoint x="535" y="550" as="targetPoint" />
          </mxGeometry>
        </mxCell>
        <mxCell id="t_3xAI16Gsf8tu39YJwn-53" value="Acquisizione misura" style="ellipse;whiteSpace=wrap;html=1;" parent="1" vertex="1">
          <mxGeometry x="692" y="480" width="120" height="80" as="geometry" />
        </mxCell>
        <mxCell id="t_3xAI16Gsf8tu39YJwn-54" value="Scrivere misura" style="ellipse;whiteSpace=wrap;html=1;" parent="1" vertex="1">
          <mxGeometry x="535" y="480" width="120" height="80" as="geometry" />
        </mxCell>
        <mxCell id="t_3xAI16Gsf8tu39YJwn-55" value="and" style="endArrow=classic;html=1;entryX=1;entryY=1;entryDx=0;entryDy=0;exitX=0.5;exitY=0;exitDx=0;exitDy=0;" parent="1" source="t_3xAI16Gsf8tu39YJwn-53" target="t_3xAI16Gsf8tu39YJwn-20" edge="1">
          <mxGeometry width="50" height="50" relative="1" as="geometry">
            <mxPoint x="735" y="590" as="sourcePoint" />
            <mxPoint x="785" y="540" as="targetPoint" />
          </mxGeometry>
        </mxCell>
        <mxCell id="t_3xAI16Gsf8tu39YJwn-56" value="and" style="endArrow=classic;html=1;entryX=0;entryY=1;entryDx=0;entryDy=0;exitX=0.5;exitY=0;exitDx=0;exitDy=0;" parent="1" source="t_3xAI16Gsf8tu39YJwn-54" target="t_3xAI16Gsf8tu39YJwn-20" edge="1">
          <mxGeometry width="50" height="50" relative="1" as="geometry">
            <mxPoint x="735" y="590" as="sourcePoint" />
            <mxPoint x="785" y="540" as="targetPoint" />
          </mxGeometry>
        </mxCell>
        <mxCell id="t_3xAI16Gsf8tu39YJwn-57" value="Scrivere misura" style="shape=hexagon;perimeter=hexagonPerimeter2;whiteSpace=wrap;html=1;" parent="1" vertex="1">
          <mxGeometry x="535" y="810" width="120" height="80" as="geometry" />
        </mxCell>
        <mxCell id="t_3xAI16Gsf8tu39YJwn-58" value="" style="endArrow=classic;html=1;exitX=0.5;exitY=0;exitDx=0;exitDy=0;entryX=0.5;entryY=1;entryDx=0;entryDy=0;" parent="1" source="t_3xAI16Gsf8tu39YJwn-57" target="t_3xAI16Gsf8tu39YJwn-54" edge="1">
          <mxGeometry width="50" height="50" relative="1" as="geometry">
            <mxPoint x="625" y="740" as="sourcePoint" />
            <mxPoint x="615" y="560" as="targetPoint" />
          </mxGeometry>
        </mxCell>
        <mxCell id="t_3xAI16Gsf8tu39YJwn-59" value="" style="endArrow=none;html=1;exitX=0.5;exitY=1;exitDx=0;exitDy=0;entryX=0;entryY=0.5;entryDx=0;entryDy=0;" parent="1" source="t_3xAI16Gsf8tu39YJwn-18" target="t_3xAI16Gsf8tu39YJwn-57" edge="1">
          <mxGeometry x="0.3836" y="-56" width="50" height="50" relative="1" as="geometry">
            <mxPoint x="625" y="830" as="sourcePoint" />
            <mxPoint x="675" y="780" as="targetPoint" />
            <mxPoint as="offset" />
            <Array as="points">
              <mxPoint x="350" y="850" />
            </Array>
          </mxGeometry>
        </mxCell>
        <mxCell id="t_3xAI16Gsf8tu39YJwn-60" value="/" style="endArrow=none;html=1;entryX=1;entryY=0.75;entryDx=0;entryDy=0;" parent="1" source="t_3xAI16Gsf8tu39YJwn-18" target="t_3xAI16Gsf8tu39YJwn-16" edge="1">
          <mxGeometry width="50" height="50" relative="1" as="geometry">
            <mxPoint x="345" y="830" as="sourcePoint" />
            <mxPoint x="395" y="780" as="targetPoint" />
          </mxGeometry>
        </mxCell>
        <mxCell id="t_3xAI16Gsf8tu39YJwn-61" value="D" style="endArrow=none;html=1;entryX=0.5;entryY=1;entryDx=0;entryDy=0;exitX=1;exitY=0;exitDx=0;exitDy=0;horizontal=0;fontStyle=1" parent="1" source="t_3xAI16Gsf8tu39YJwn-22" target="t_3xAI16Gsf8tu39YJwn-8" edge="1">
          <mxGeometry x="0.1076" y="1" width="50" height="50" relative="1" as="geometry">
            <mxPoint x="695" y="960" as="sourcePoint" />
            <mxPoint x="925" y="810" as="targetPoint" />
            <mxPoint as="offset" />
          </mxGeometry>
        </mxCell>
        <mxCell id="t_3xAI16Gsf8tu39YJwn-62" value="Invio misura" style="shape=hexagon;perimeter=hexagonPerimeter2;whiteSpace=wrap;html=1;" parent="1" vertex="1">
          <mxGeometry x="595" y="1608" width="120" height="80" as="geometry" />
        </mxCell>
        <mxCell id="t_3xAI16Gsf8tu39YJwn-63" value="/" style="endArrow=none;html=1;entryX=0.5;entryY=1;entryDx=0;entryDy=0;exitX=0.5;exitY=0;exitDx=0;exitDy=0;horizontal=0;" parent="1" source="t_3xAI16Gsf8tu39YJwn-64" target="t_3xAI16Gsf8tu39YJwn-62" edge="1">
          <mxGeometry width="50" height="50" relative="1" as="geometry">
            <mxPoint x="638" y="1748" as="sourcePoint" />
            <mxPoint x="578" y="1578" as="targetPoint" />
          </mxGeometry>
        </mxCell>
        <mxCell id="t_3xAI16Gsf8tu39YJwn-64" value="Misura" style="rounded=0;whiteSpace=wrap;html=1;" parent="1" vertex="1">
          <mxGeometry x="595" y="1758" width="120" height="60" as="geometry" />
        </mxCell>
        <mxCell id="t_3xAI16Gsf8tu39YJwn-65" value="" style="endArrow=classic;html=1;entryX=0;entryY=1;entryDx=0;entryDy=0;exitX=0.5;exitY=0;exitDx=0;exitDy=0;" parent="1" source="t_3xAI16Gsf8tu39YJwn-62" target="t_3xAI16Gsf8tu39YJwn-42" edge="1">
          <mxGeometry width="50" height="50" relative="1" as="geometry">
            <mxPoint x="528" y="1628" as="sourcePoint" />
            <mxPoint x="578" y="1578" as="targetPoint" />
          </mxGeometry>
        </mxCell>
        <mxCell id="t_3xAI16Gsf8tu39YJwn-66" value="" style="endArrow=none;html=1;entryX=0.5;entryY=1;entryDx=0;entryDy=0;exitX=0.5;exitY=0;exitDx=0;exitDy=0;horizontal=1;fontStyle=1;labelPosition=center;verticalLabelPosition=middle;align=center;verticalAlign=middle;anchorPointDirection=1;" parent="1" source="t_3xAI16Gsf8tu39YJwn-42" target="t_3xAI16Gsf8tu39YJwn-67" edge="1">
          <mxGeometry x="-0.6182" y="12" width="50" height="50" relative="1" as="geometry">
            <mxPoint x="752" y="1448" as="sourcePoint" />
            <mxPoint x="752" y="657" as="targetPoint" />
            <mxPoint as="offset" />
          </mxGeometry>
        </mxCell>
        <mxCell id="t_3xAI16Gsf8tu39YJwn-67" value="&lt;b&gt;D&lt;/b&gt;" style="text;html=1;align=center;verticalAlign=middle;resizable=1;points=[];autosize=1;rotation=-180;horizontal=0;direction=east;fillColor=#ffffff;overflow=visible;perimeter=none;container=0;backgroundOutline=0;resizeWidth=1;resizeHeight=1;" parent="1" vertex="1">
          <mxGeometry x="742" y="1276" width="22" height="6" as="geometry" />
        </mxCell>
        <mxCell id="t_3xAI16Gsf8tu39YJwn-68" value="&lt;b&gt;D&lt;/b&gt;" style="text;html=1;align=center;verticalAlign=middle;resizable=1;points=[];autosize=1;rotation=-180;horizontal=0;direction=east;fillColor=#ffffff;overflow=visible;perimeter=none;container=0;backgroundOutline=0;resizeWidth=1;resizeHeight=1;" parent="1" vertex="1">
          <mxGeometry x="584" y="1276" width="22" height="6" as="geometry" />
        </mxCell>
        <mxCell id="t_3xAI16Gsf8tu39YJwn-69" value="" style="endArrow=none;html=1;horizontal=1;exitX=0;exitY=0.5;exitDx=0;exitDy=0;fontStyle=1;entryX=0.514;entryY=-0.058;entryDx=0;entryDy=0;entryPerimeter=0;" parent="1" source="t_3xAI16Gsf8tu39YJwn-64" target="t_3xAI16Gsf8tu39YJwn-68" edge="1">
          <mxGeometry x="0.5813" width="50" height="50" relative="1" as="geometry">
            <mxPoint x="595" y="1788" as="sourcePoint" />
            <mxPoint x="595" y="1287" as="targetPoint" />
            <mxPoint as="offset" />
          </mxGeometry>
        </mxCell>
        <mxCell id="t_3xAI16Gsf8tu39YJwn-97" value="&lt;b&gt;&lt;font style=&quot;font-size: 14px&quot;&gt;Modulo ricezione foto&lt;/font&gt;&lt;/b&gt;" style="ellipse;whiteSpace=wrap;html=1;aspect=fixed;" parent="1" vertex="1">
          <mxGeometry x="1440" y="160" width="111" height="111" as="geometry" />
        </mxCell>
        <mxCell id="t_3xAI16Gsf8tu39YJwn-98" value="&lt;b&gt;&lt;font style=&quot;font-size: 14px&quot;&gt;Modulo blockchain&lt;/font&gt;&lt;/b&gt;" style="ellipse;whiteSpace=wrap;html=1;aspect=fixed;" parent="1" vertex="1">
          <mxGeometry x="440" y="120" width="95" height="95" as="geometry" />
        </mxCell>
        <mxCell id="t_3xAI16Gsf8tu39YJwn-99" value="Aggiungere foto nel DB" style="shape=hexagon;perimeter=hexagonPerimeter2;whiteSpace=wrap;html=1;" parent="1" vertex="1">
          <mxGeometry x="1040" y="602.5" width="120" height="80" as="geometry" />
        </mxCell>
        <mxCell id="t_3xAI16Gsf8tu39YJwn-104" value="\" style="endArrow=none;html=1;exitX=1;exitY=0;exitDx=0;exitDy=0;entryX=0.136;entryY=0.788;entryDx=0;entryDy=0;entryPerimeter=0;" parent="1" source="t_3xAI16Gsf8tu39YJwn-8" target="t_3xAI16Gsf8tu39YJwn-99" edge="1">
          <mxGeometry width="50" height="50" relative="1" as="geometry">
            <mxPoint x="920" y="700" as="sourcePoint" />
            <mxPoint x="970" y="650" as="targetPoint" />
          </mxGeometry>
        </mxCell>
        <mxCell id="t_3xAI16Gsf8tu39YJwn-105" value="" style="endArrow=block;html=1;endFill=1;exitX=0;exitY=0.25;exitDx=0;exitDy=0;" parent="1" source="t_3xAI16Gsf8tu39YJwn-99" target="t_3xAI16Gsf8tu39YJwn-48" edge="1">
          <mxGeometry width="50" height="50" relative="1" as="geometry">
            <mxPoint x="1000" y="610" as="sourcePoint" />
            <mxPoint x="1062" y="668.5" as="targetPoint" />
          </mxGeometry>
        </mxCell>
        <mxCell id="t_3xAI16Gsf8tu39YJwn-107" value="\" style="edgeStyle=orthogonalEdgeStyle;rounded=0;orthogonalLoop=1;jettySize=auto;html=1;entryX=0.5;entryY=1;entryDx=0;entryDy=0;endArrow=none;endFill=0;horizontal=0;" parent="1" source="t_3xAI16Gsf8tu39YJwn-106" target="t_3xAI16Gsf8tu39YJwn-99" edge="1">
          <mxGeometry relative="1" as="geometry" />
        </mxCell>
        <mxCell id="t_3xAI16Gsf8tu39YJwn-106" value="DB" style="rounded=0;whiteSpace=wrap;html=1;" parent="1" vertex="1">
          <mxGeometry x="1040" y="732.5" width="120" height="60" as="geometry" />
        </mxCell>
        <mxCell id="t_3xAI16Gsf8tu39YJwn-110" value="&lt;b&gt;&lt;font color=&quot;#ff0000&quot; style=&quot;font-size: 14px&quot;&gt;&lt;br&gt;Boundary Modulo ricezione foto&lt;/font&gt;&lt;/b&gt;" style="ellipse;whiteSpace=wrap;html=1;aspect=fixed;dashed=1;fillColor=none;align=center;verticalAlign=top;" parent="1" vertex="1">
          <mxGeometry x="1275" y="70" width="700" height="700" as="geometry" />
        </mxCell>
        <mxCell id="t_3xAI16Gsf8tu39YJwn-111" value="&lt;div&gt;&lt;span&gt;&lt;b&gt;&lt;font color=&quot;#ff0000&quot;&gt;Boundary servizio di fotogrammetria&lt;/font&gt;&lt;/b&gt;&lt;/span&gt;&lt;/div&gt;" style="ellipse;whiteSpace=wrap;html=1;aspect=fixed;dashed=1;fillColor=none;align=left;labelBackgroundColor=none;horizontal=1;verticalAlign=middle;" parent="1" vertex="1">
          <mxGeometry x="359" y="1307" width="620" height="620" as="geometry" />
        </mxCell>
        <mxCell id="X_rav3u2DecoJtggPr48-1" value="Clumsy&amp;nbsp;&lt;br&gt;Direttore&lt;br&gt;dei&lt;br&gt;lavori" style="ellipse;whiteSpace=wrap;html=1;aspect=fixed;fillColor=#FF0000;fontColor=#FFFFFF;" parent="1" vertex="1">
          <mxGeometry x="1980" y="1094" width="95" height="95" as="geometry" />
        </mxCell>
        <mxCell id="X_rav3u2DecoJtggPr48-5" value="Violation of&lt;br&gt;confidentiality" style="rounded=1;whiteSpace=wrap;html=1;fillColor=#000000;fontColor=#FFFFFF;arcSize=50;strokeColor=#000000;" parent="1" vertex="1">
          <mxGeometry x="1421" y="1109" width="120" height="60" as="geometry" />
        </mxCell>
        <mxCell id="X_rav3u2DecoJtggPr48-6" value="Violation of&lt;br&gt;confidentiality" style="rounded=1;whiteSpace=wrap;html=1;fillColor=#000000;fontColor=#FFFFFF;arcSize=50;strokeColor=#000000;" parent="1" vertex="1">
          <mxGeometry x="1420" y="930" width="120" height="60" as="geometry" />
        </mxCell>
        <mxCell id="X_rav3u2DecoJtggPr48-7" value="Violation of&lt;br&gt;&amp;nbsp;integrity" style="rounded=1;whiteSpace=wrap;html=1;fillColor=#000000;fontColor=#FFFFFF;arcSize=50;strokeColor=#000000;" parent="1" vertex="1">
          <mxGeometry x="1423" y="1307" width="120" height="60" as="geometry" />
        </mxCell>
        <mxCell id="X_rav3u2DecoJtggPr48-10" value="" style="curved=1;endArrow=none;html=1;fontColor=#FFFFFF;entryX=0.5;entryY=1;entryDx=0;entryDy=0;endFill=0;strokeWidth=3;strokeColor=#7F00FF;exitX=0.036;exitY=0.227;exitDx=0;exitDy=0;exitPerimeter=0;" parent="1" source="X_rav3u2DecoJtggPr48-6" target="X_rav3u2DecoJtggPr48-22" edge="1">
          <mxGeometry width="50" height="50" relative="1" as="geometry">
            <mxPoint x="1430" y="939" as="sourcePoint" />
            <mxPoint x="1030" y="1010" as="targetPoint" />
            <Array as="points">
              <mxPoint x="1200" y="930" />
            </Array>
          </mxGeometry>
        </mxCell>
        <mxCell id="X_rav3u2DecoJtggPr48-11" value="" style="curved=1;endArrow=none;html=1;fontColor=#FFFFFF;endFill=0;strokeWidth=3;strokeColor=#7F00FF;entryX=0.996;entryY=0.637;entryDx=0;entryDy=0;entryPerimeter=0;exitX=0.031;exitY=0.756;exitDx=0;exitDy=0;exitPerimeter=0;" parent="1" source="X_rav3u2DecoJtggPr48-6" target="X_rav3u2DecoJtggPr48-18" edge="1">
          <mxGeometry width="50" height="50" relative="1" as="geometry">
            <mxPoint x="1220" y="1030" as="sourcePoint" />
            <mxPoint x="1040" y="1015" as="targetPoint" />
            <Array as="points">
              <mxPoint x="1190" y="1010" />
              <mxPoint x="780" y="810" />
            </Array>
          </mxGeometry>
        </mxCell>
        <mxCell id="X_rav3u2DecoJtggPr48-13" value="" style="curved=1;endArrow=none;html=1;fontColor=#FFFFFF;entryX=0.75;entryY=1;entryDx=0;entryDy=0;endFill=0;strokeWidth=3;strokeColor=#7F00FF;exitX=0.043;exitY=0.249;exitDx=0;exitDy=0;exitPerimeter=0;" parent="1" source="X_rav3u2DecoJtggPr48-5" target="X_rav3u2DecoJtggPr48-20" edge="1">
          <mxGeometry width="50" height="50" relative="1" as="geometry">
            <mxPoint x="1220" y="1195" as="sourcePoint" />
            <mxPoint x="1040" y="1175" as="targetPoint" />
            <Array as="points">
              <mxPoint x="1170" y="1100" />
            </Array>
          </mxGeometry>
        </mxCell>
        <mxCell id="X_rav3u2DecoJtggPr48-14" value="" style="curved=1;endArrow=none;html=1;fontColor=#FFFFFF;endFill=0;entryX=1;entryY=0.5;entryDx=0;entryDy=0;strokeWidth=3;strokeColor=#7F00FF;exitX=0.052;exitY=0.271;exitDx=0;exitDy=0;exitPerimeter=0;" parent="1" source="X_rav3u2DecoJtggPr48-1" target="X_rav3u2DecoJtggPr48-6" edge="1">
          <mxGeometry width="50" height="50" relative="1" as="geometry">
            <mxPoint x="2050" y="960" as="sourcePoint" />
            <mxPoint x="1345" y="1030" as="targetPoint" />
            <Array as="points">
              <mxPoint x="1710" y="970" />
            </Array>
          </mxGeometry>
        </mxCell>
        <mxCell id="X_rav3u2DecoJtggPr48-18" value="" style="rounded=0;whiteSpace=wrap;html=1;strokeColor=#FF0000;fillColor=none;fontColor=#FFFFFF;strokeWidth=3;" parent="1" vertex="1">
          <mxGeometry x="278.5" y="715" width="141" height="70" as="geometry" />
        </mxCell>
        <mxCell id="X_rav3u2DecoJtggPr48-20" value="" style="rounded=0;whiteSpace=wrap;html=1;strokeColor=#FF0000;fillColor=none;fontColor=#FFFFFF;strokeWidth=3;" parent="1" vertex="1">
          <mxGeometry x="844.5" y="727.5" width="141" height="70" as="geometry" />
        </mxCell>
        <mxCell id="X_rav3u2DecoJtggPr48-21" value="" style="rounded=0;whiteSpace=wrap;html=1;strokeColor=#FF0000;fillColor=none;fontColor=#FFFFFF;strokeWidth=3;" parent="1" vertex="1">
          <mxGeometry x="524.5" y="1005" width="141" height="70" as="geometry" />
        </mxCell>
        <mxCell id="X_rav3u2DecoJtggPr48-22" value="" style="rounded=0;whiteSpace=wrap;html=1;strokeColor=#FF0000;fillColor=none;fontColor=#FFFFFF;strokeWidth=3;" parent="1" vertex="1">
          <mxGeometry x="1029.5" y="727.5" width="141" height="70" as="geometry" />
        </mxCell>
        <mxCell id="X_rav3u2DecoJtggPr48-23" value="" style="curved=1;endArrow=none;html=1;fontColor=#FFFFFF;entryX=1;entryY=0.25;entryDx=0;entryDy=0;endFill=0;strokeWidth=3;strokeColor=#7F00FF;exitX=0.043;exitY=0.809;exitDx=0;exitDy=0;exitPerimeter=0;" parent="1" source="X_rav3u2DecoJtggPr48-5" target="X_rav3u2DecoJtggPr48-21" edge="1">
          <mxGeometry width="50" height="50" relative="1" as="geometry">
            <mxPoint x="1420" y="1154" as="sourcePoint" />
            <mxPoint x="1039.9999999999995" y="1175" as="targetPoint" />
            <Array as="points">
              <mxPoint x="1230" y="1139" />
              <mxPoint x="1120" y="1130" />
            </Array>
          </mxGeometry>
        </mxCell>
        <mxCell id="X_rav3u2DecoJtggPr48-24" value="" style="curved=1;endArrow=none;html=1;fontColor=#FFFFFF;entryX=1;entryY=0.5;entryDx=0;entryDy=0;endFill=0;exitX=0;exitY=1;exitDx=0;exitDy=0;strokeWidth=3;strokeColor=#7F00FF;" parent="1" source="X_rav3u2DecoJtggPr48-1" target="X_rav3u2DecoJtggPr48-7" edge="1">
          <mxGeometry width="50" height="50" relative="1" as="geometry">
            <mxPoint x="1520" y="1180" as="sourcePoint" />
            <mxPoint x="1339.9999999999995" y="1270" as="targetPoint" />
            <Array as="points">
              <mxPoint x="1640" y="1300" />
            </Array>
          </mxGeometry>
        </mxCell>
        <mxCell id="X_rav3u2DecoJtggPr48-25" value="" style="curved=1;endArrow=none;html=1;fontColor=#FFFFFF;entryX=1;entryY=0.5;entryDx=0;entryDy=0;endFill=0;exitX=-0.008;exitY=0.576;exitDx=0;exitDy=0;strokeWidth=3;strokeColor=#7F00FF;exitPerimeter=0;" parent="1" source="X_rav3u2DecoJtggPr48-1" target="X_rav3u2DecoJtggPr48-5" edge="1">
          <mxGeometry width="50" height="50" relative="1" as="geometry">
            <mxPoint x="1520" y="1180" as="sourcePoint" />
            <mxPoint x="1339.9999999999995" y="1190" as="targetPoint" />
            <Array as="points" />
          </mxGeometry>
        </mxCell>
        <mxCell id="X_rav3u2DecoJtggPr48-27" value="" style="curved=1;endArrow=none;html=1;fontColor=#FFFFFF;endFill=0;strokeWidth=3;strokeColor=#7F00FF;entryX=0.5;entryY=1;entryDx=0;entryDy=0;exitX=0.037;exitY=0.287;exitDx=0;exitDy=0;exitPerimeter=0;" parent="1" source="X_rav3u2DecoJtggPr48-7" target="X_rav3u2DecoJtggPr48-20" edge="1">
          <mxGeometry width="50" height="50" relative="1" as="geometry">
            <mxPoint x="1410" y="1322" as="sourcePoint" />
            <mxPoint x="920" y="800" as="targetPoint" />
            <Array as="points">
              <mxPoint x="1140" y="1210" />
            </Array>
          </mxGeometry>
        </mxCell>
        <mxCell id="X_rav3u2DecoJtggPr48-28" value="" style="curved=1;endArrow=none;html=1;fontColor=#FFFFFF;entryX=1;entryY=0.75;entryDx=0;entryDy=0;endFill=0;strokeWidth=3;strokeColor=#7F00FF;exitX=0.042;exitY=0.793;exitDx=0;exitDy=0;exitPerimeter=0;" parent="1" source="X_rav3u2DecoJtggPr48-7" target="X_rav3u2DecoJtggPr48-21" edge="1">
          <mxGeometry width="50" height="50" relative="1" as="geometry">
            <mxPoint x="1219.9999999999995" y="1270" as="sourcePoint" />
            <mxPoint x="1039.9999999999995" y="1250" as="targetPoint" />
            <Array as="points">
              <mxPoint x="1110" y="1240" />
            </Array>
          </mxGeometry>
        </mxCell>
        <mxCell id="SzXEChga-AfkoWr6K1bM-1" value="Integrity &amp;amp; Confidentiability" style="rounded=1;whiteSpace=wrap;html=1;strokeColor=#4D4D4D;strokeWidth=4;fillColor=#0FB863;fontColor=#0008FF;" parent="1" vertex="1">
          <mxGeometry x="780" y="770" width="120" height="60" as="geometry" />
        </mxCell>
        <mxCell id="SzXEChga-AfkoWr6K1bM-2" value="Integrity &amp;amp; Confidentiability" style="rounded=1;whiteSpace=wrap;html=1;strokeColor=#4D4D4D;strokeWidth=4;fillColor=#0FB863;fontColor=#0008FF;" parent="1" vertex="1">
          <mxGeometry x="460" y="1050" width="120" height="60" as="geometry" />
        </mxCell>
        <mxCell id="SzXEChga-AfkoWr6K1bM-3" value="Authentication, Confidentiability &amp;amp; Availability" style="rounded=1;whiteSpace=wrap;html=1;strokeColor=#4D4D4D;strokeWidth=4;fillColor=#0FB863;fontColor=#0008FF;" parent="1" vertex="1">
          <mxGeometry x="222" y="770" width="120" height="60" as="geometry" />
        </mxCell>
        <mxCell id="SzXEChga-AfkoWr6K1bM-4" value="Authentication, Confidentiability &amp;amp; Availability" style="rounded=1;whiteSpace=wrap;html=1;strokeColor=#4D4D4D;strokeWidth=4;fillColor=#0FB863;fontColor=#0008FF;" parent="1" vertex="1">
          <mxGeometry x="1120" y="770" width="120" height="60" as="geometry" />
        </mxCell>
      </root>
    </mxGraphModel>
  </diagram>
</mxfile>
